<svg id="svg" version="1.1" xmlns="http://www.w3.org/2000/svg" xmlns:xlink="http://www.w3.org/1999/xlink" width="400" height="320" viewBox="0, 0, 400,320"><g id="svgg"><path id="path0" d="M196.076 72.711 L 202.232 73.035 201.679 74.038 C 201.376 74.589,200.929 75.285,200.688 75.585 C 200.097 76.317,198.720 79.060,198.720 79.504 C 198.720 79.699,198.432 80.066,198.080 80.320 C 197.728 80.574,197.440 81.037,197.440 81.351 C 197.440 81.664,197.296 81.920,197.120 81.920 C 196.944 81.920,196.800 82.114,196.800 82.351 C 196.800 82.964,195.914 84.660,195.349 85.129 C 195.087 85.347,194.444 86.423,193.920 87.520 C 193.396 88.617,192.750 89.696,192.484 89.917 C 192.218 90.138,192.000 90.643,192.000 91.040 C 192.000 91.437,191.777 91.947,191.504 92.173 C 191.231 92.399,190.739 93.177,190.409 93.900 C 190.079 94.624,189.510 95.487,189.145 95.818 C 188.779 96.148,188.480 96.591,188.480 96.800 C 188.480 97.009,188.192 97.441,187.840 97.760 C 187.488 98.079,187.200 98.533,187.200 98.770 C 187.200 99.364,186.754 99.309,185.528 98.561 C 183.864 97.547,183.729 97.812,185.202 99.200 C 185.950 99.904,186.777 100.480,187.041 100.480 C 187.304 100.480,187.520 100.624,187.520 100.800 C 187.520 100.976,187.796 101.120,188.133 101.120 C 188.471 101.120,188.795 101.228,188.853 101.360 C 188.956 101.591,191.485 102.871,192.800 103.358 C 193.152 103.488,193.800 103.752,194.240 103.944 C 199.227 106.125,209.685 107.131,216.560 106.092 C 218.265 105.835,218.957 106.630,217.954 107.696 C 217.797 107.863,217.361 109.264,216.986 110.810 C 214.873 119.514,215.264 127.059,218.304 136.240 C 219.175 138.870,219.507 140.301,219.294 140.514 C 218.775 141.033,219.190 142.246,220.069 142.779 C 221.801 143.830,222.040 146.894,220.338 146.247 C 219.930 146.092,219.057 146.089,218.363 146.241 C 213.723 147.256,198.326 147.246,195.644 146.226 C 195.201 146.058,194.524 145.918,194.139 145.916 C 193.330 145.911,191.768 143.784,192.232 143.320 C 192.401 143.151,193.630 143.219,195.219 143.484 C 202.521 144.703,212.797 144.849,217.871 143.807 C 218.796 143.617,218.634 142.538,217.498 141.312 L 216.761 140.517 211.981 140.812 C 205.016 141.242,199.352 140.933,193.280 139.794 C 192.312 139.613,191.219 139.408,190.851 139.339 C 190.426 139.259,190.003 138.757,189.691 137.962 C 189.070 136.382,189.328 135.895,190.581 136.282 C 195.215 137.710,205.209 138.605,211.448 138.151 C 216.260 137.800,215.794 138.048,215.157 136.178 L 214.635 134.647 210.117 134.852 C 205.774 135.048,199.534 134.719,195.840 134.098 C 194.872 133.935,193.393 133.701,192.553 133.578 C 191.713 133.456,190.948 133.230,190.854 133.078 C 190.759 132.925,190.295 132.795,189.821 132.790 C 188.448 132.774,187.840 132.103,187.840 130.605 C 187.840 129.315,188.710 128.677,189.258 129.565 C 189.355 129.721,189.903 129.927,190.477 130.022 C 191.051 130.116,192.168 130.359,192.960 130.561 C 196.886 131.563,204.929 132.272,209.868 132.052 C 214.114 131.862,213.882 131.984,213.405 130.203 L 213.030 128.800 206.435 128.788 C 199.857 128.775,196.080 128.352,192.524 127.230 C 190.493 126.589,188.707 126.106,188.000 126.005 C 187.508 125.936,187.337 125.629,187.259 124.684 C 187.127 123.090,187.402 122.314,187.914 122.826 C 188.120 123.032,188.755 123.200,189.325 123.200 C 189.896 123.200,190.451 123.344,190.560 123.520 C 190.669 123.696,191.101 123.840,191.520 123.840 C 191.939 123.840,192.362 123.969,192.459 124.126 C 192.556 124.284,193.177 124.492,193.838 124.590 C 194.499 124.688,195.832 124.917,196.800 125.101 C 200.803 125.858,202.940 126.060,207.094 126.070 C 212.501 126.082,212.480 126.090,212.481 124.206 L 212.481 122.720 208.401 122.830 C 202.243 122.997,195.335 122.004,189.600 120.130 L 187.360 119.398 187.262 117.939 L 187.165 116.480 188.444 116.480 C 189.147 116.480,189.811 116.624,189.920 116.800 C 190.029 116.976,190.461 117.120,190.880 117.120 C 191.299 117.120,191.721 117.247,191.816 117.402 C 191.912 117.557,192.317 117.761,192.715 117.855 C 193.114 117.950,194.591 118.324,195.998 118.686 C 199.176 119.503,205.262 120.079,209.280 119.943 L 212.320 119.840 212.416 118.346 L 212.513 116.852 206.816 116.688 C 203.683 116.598,200.184 116.366,199.040 116.172 C 197.896 115.979,196.384 115.739,195.680 115.638 C 194.976 115.537,194.263 115.325,194.096 115.167 C 193.929 115.009,193.469 114.880,193.075 114.880 C 192.680 114.880,192.269 114.736,192.160 114.560 C 192.051 114.384,191.547 114.240,191.040 114.240 C 190.533 114.240,190.040 114.115,189.946 113.961 C 189.851 113.808,189.338 113.596,188.807 113.489 C 187.920 113.312,187.840 113.188,187.840 111.985 C 187.840 110.442,188.494 109.595,189.348 110.032 C 189.662 110.193,190.352 110.503,190.880 110.720 C 191.408 110.937,192.061 111.224,192.331 111.357 C 192.600 111.490,193.320 111.706,193.931 111.836 C 194.541 111.967,195.184 112.184,195.360 112.319 C 195.953 112.773,205.345 113.896,208.640 113.906 C 212.250 113.918,213.034 113.681,213.216 112.523 C 213.302 111.971,213.481 111.180,213.613 110.764 C 213.833 110.071,213.789 110.031,213.087 110.284 C 211.925 110.702,202.066 110.596,199.520 110.137 C 198.288 109.916,196.811 109.652,196.237 109.552 C 195.663 109.451,195.115 109.241,195.018 109.085 C 194.921 108.928,194.419 108.800,193.901 108.800 C 193.384 108.800,192.960 108.656,192.960 108.480 C 192.960 108.304,192.670 108.160,192.316 108.160 C 191.961 108.160,191.421 108.034,191.116 107.880 C 187.363 105.989,187.520 106.027,187.520 107.021 C 187.520 107.451,187.376 107.891,187.200 108.000 C 187.024 108.109,186.880 108.664,186.880 109.235 C 186.880 109.805,186.749 110.409,186.588 110.576 C 186.231 110.948,185.964 113.383,185.667 118.992 C 185.355 124.866,185.684 129.169,186.846 134.400 C 187.022 135.192,187.256 136.272,187.367 136.800 C 187.478 137.328,187.687 138.048,187.832 138.400 C 187.977 138.752,188.268 139.544,188.480 140.160 C 188.941 141.503,189.210 142.184,189.887 143.728 C 190.521 145.173,190.524 145.418,189.916 145.923 C 189.548 146.229,189.519 146.430,189.795 146.762 C 190.352 147.433,189.663 147.287,188.469 146.480 C 187.883 146.084,187.048 145.040,186.613 144.160 C 186.178 143.280,185.729 142.488,185.615 142.400 C 185.368 142.210,184.652 140.666,183.686 138.240 C 183.300 137.272,182.854 136.230,182.693 135.924 C 182.532 135.619,182.400 135.087,182.400 134.743 C 182.400 134.399,182.256 134.029,182.080 133.920 C 181.904 133.811,181.760 133.235,181.760 132.640 C 181.760 132.045,181.616 131.469,181.440 131.360 C 181.264 131.251,181.120 130.696,181.120 130.125 C 181.120 129.555,180.986 128.951,180.823 128.784 C 180.200 128.145,179.563 111.189,180.140 110.612 C 180.327 110.425,180.480 109.456,180.480 108.458 L 180.480 106.644 179.280 106.445 C 177.353 106.127,177.024 106.188,177.741 106.730 C 178.083 106.989,178.623 107.200,178.941 107.200 C 179.556 107.200,179.738 107.988,179.200 108.320 C 179.024 108.429,178.880 109.753,178.880 111.264 C 178.880 114.153,178.340 115.307,177.365 114.498 C 176.927 114.134,175.865 114.403,176.119 114.813 C 176.206 114.955,176.147 115.280,175.988 115.535 C 175.589 116.175,174.689 115.588,174.306 114.437 C 173.920 113.281,174.194 113.072,175.218 113.742 C 175.679 114.044,176.132 114.214,176.226 114.121 C 176.456 113.891,175.500 112.960,175.034 112.960 C 174.830 112.960,174.423 112.664,174.131 112.303 C 173.627 111.681,173.610 111.771,173.815 113.983 C 174.363 119.898,175.062 124.771,175.711 127.200 C 175.899 127.904,176.129 128.878,176.223 129.364 C 176.317 129.850,176.521 130.327,176.677 130.423 C 176.833 130.519,176.960 130.879,176.960 131.223 C 176.960 131.567,177.087 132.099,177.243 132.404 C 177.580 133.068,177.939 133.940,178.888 136.405 C 179.279 137.420,179.725 138.329,179.879 138.424 C 180.034 138.520,180.160 138.877,180.160 139.219 C 180.160 139.560,180.287 139.840,180.443 139.840 C 180.598 139.840,180.808 140.092,180.909 140.400 C 181.133 141.086,182.481 143.377,183.720 145.178 C 184.618 146.483,184.865 147.200,184.418 147.200 C 183.988 147.200,179.940 142.771,178.570 140.800 C 178.141 140.184,177.708 139.608,177.606 139.520 C 177.175 139.147,175.040 135.973,175.040 135.706 C 175.040 135.545,174.932 135.365,174.800 135.307 C 174.472 135.161,173.665 133.734,172.295 130.880 C 171.662 129.560,171.012 128.230,170.852 127.924 C 170.691 127.619,170.560 127.168,170.560 126.924 C 170.560 126.679,170.344 126.299,170.080 126.080 C 169.816 125.861,169.595 125.375,169.590 125.001 C 169.584 124.626,169.368 124.040,169.110 123.699 C 168.851 123.357,168.640 123.249,168.640 123.459 C 168.640 123.668,168.280 123.840,167.840 123.840 C 166.703 123.840,166.773 125.171,167.991 126.709 C 168.515 127.370,168.839 128.026,168.711 128.166 C 168.584 128.307,168.737 128.329,169.052 128.216 C 169.933 127.900,170.108 128.879,169.320 129.717 C 168.946 130.115,168.640 130.655,168.640 130.917 C 168.640 131.544,167.903 133.114,167.607 133.118 C 167.321 133.121,166.080 135.642,166.080 136.220 C 166.080 136.451,165.936 136.640,165.760 136.640 C 165.584 136.640,165.440 136.896,165.440 137.209 C 165.440 137.523,165.152 137.986,164.800 138.240 C 164.448 138.494,164.149 138.921,164.137 139.191 C 164.124 139.460,163.838 140.112,163.501 140.640 C 163.165 141.168,162.758 141.894,162.598 142.253 C 162.438 142.612,162.077 143.097,161.797 143.329 C 161.516 143.562,161.365 143.879,161.461 144.034 C 161.557 144.189,161.291 144.785,160.870 145.358 C 160.449 145.931,159.867 146.920,159.578 147.556 C 159.289 148.192,158.833 148.893,158.566 149.115 C 158.299 149.337,158.080 149.699,158.080 149.920 C 158.080 150.141,157.857 150.507,157.584 150.733 C 157.311 150.959,156.798 151.733,156.444 152.452 C 155.500 154.367,155.047 155.125,154.452 155.783 C 154.159 156.106,153.920 156.611,153.920 156.905 C 153.920 157.199,153.776 157.440,153.600 157.440 C 153.424 157.440,153.280 157.728,153.280 158.080 C 153.280 158.432,153.136 158.720,152.960 158.720 C 152.784 158.720,152.640 158.864,152.640 159.040 C 152.640 159.463,151.451 160.640,151.024 160.640 C 150.839 160.640,150.487 160.161,150.242 159.575 C 149.997 158.989,149.573 158.323,149.298 158.095 C 149.024 157.868,148.800 157.415,148.800 157.089 C 148.800 156.762,148.513 156.024,148.161 155.448 L 147.522 154.400 147.521 155.440 C 147.521 156.012,147.664 156.480,147.840 156.480 C 148.016 156.480,148.160 156.840,148.160 157.280 C 148.160 157.720,148.304 158.080,148.480 158.080 C 148.656 158.080,148.800 158.440,148.800 158.880 C 148.800 159.320,148.944 159.680,149.120 159.680 C 149.296 159.680,149.440 159.911,149.440 160.194 C 149.440 160.476,149.872 161.347,150.400 162.130 C 150.928 162.912,151.360 163.635,151.360 163.735 C 151.360 163.919,153.960 167.638,154.872 168.759 C 156.784 171.107,160.334 174.260,164.016 176.881 C 165.640 178.036,169.520 179.882,172.640 180.985 C 173.520 181.296,174.384 181.651,174.560 181.775 C 174.736 181.898,175.312 182.083,175.840 182.185 C 176.368 182.288,177.520 182.531,178.400 182.727 C 187.549 184.758,208.051 185.075,218.880 183.352 C 220.024 183.170,221.536 182.939,222.240 182.838 C 222.944 182.737,223.657 182.525,223.824 182.367 C 223.991 182.209,224.523 182.080,225.005 182.080 C 225.488 182.080,225.971 181.936,226.080 181.760 C 226.189 181.584,226.621 181.440,227.040 181.440 C 227.459 181.440,227.891 181.296,228.000 181.120 C 228.109 180.944,228.441 180.803,228.739 180.807 C 231.903 180.847,242.334 173.275,246.579 167.856 C 249.185 164.529,252.800 158.004,252.800 156.627 C 252.800 156.391,252.944 156.109,253.120 156.000 C 253.296 155.891,253.440 155.459,253.440 155.040 C 253.440 154.621,253.568 154.199,253.725 154.102 C 253.881 154.005,254.087 153.457,254.182 152.883 C 254.276 152.309,254.513 151.192,254.708 150.400 C 257.086 140.734,257.112 117.108,254.757 106.560 C 254.018 103.254,253.816 102.484,253.284 100.968 C 248.567 87.518,237.240 77.366,223.432 74.214 C 216.834 72.708,215.208 72.574,202.400 72.479 C 190.776 72.393,190.342 72.409,196.076 72.711 M184.084 73.190 C 184.571 73.263,185.291 73.261,185.684 73.185 C 186.078 73.109,185.680 73.049,184.800 73.052 C 183.920 73.054,183.598 73.116,184.084 73.190 M182.002 99.680 C 181.918 100.120,181.973 100.480,182.124 100.480 C 182.276 100.480,182.400 100.120,182.400 99.680 C 182.400 99.240,182.345 98.880,182.277 98.880 C 182.210 98.880,182.086 99.240,182.002 99.680 M180.827 102.736 C 180.394 104.753,180.384 105.920,180.800 105.920 C 180.976 105.920,181.120 105.352,181.120 104.659 C 181.120 103.965,181.264 103.309,181.440 103.200 C 181.841 102.952,181.865 101.120,181.467 101.120 C 181.305 101.120,181.017 101.847,180.827 102.736 M166.662 112.080 C 166.592 112.300,166.628 113.056,166.742 113.760 C 166.947 115.028,166.950 115.024,166.995 113.360 C 167.039 111.725,166.919 111.266,166.662 112.080 M167.221 117.680 C 167.360 118.516,167.450 119.652,167.420 120.203 C 167.390 120.761,167.578 121.383,167.843 121.603 C 168.252 121.942,168.320 121.814,168.320 120.698 C 168.320 119.983,168.176 119.309,168.000 119.200 C 167.824 119.091,167.680 118.363,167.680 117.581 C 167.680 116.750,167.532 116.160,167.324 116.160 C 167.076 116.160,167.045 116.625,167.221 117.680 M144.992 144.144 C 144.970 145.222,145.064 145.624,145.287 145.401 C 145.501 145.187,145.512 144.639,145.319 143.817 L 145.024 142.560 144.992 144.144 M145.674 148.160 C 145.674 148.776,145.740 149.028,145.821 148.720 C 145.901 148.412,145.901 147.908,145.821 147.600 C 145.740 147.292,145.674 147.544,145.674 148.160 M146.240 151.296 C 146.240 151.859,146.384 152.320,146.560 152.320 C 146.736 152.320,146.880 152.853,146.880 153.504 C 146.880 154.244,146.993 154.574,147.180 154.384 C 147.367 154.195,147.355 153.477,147.147 152.480 C 146.738 150.523,146.240 149.872,146.240 151.296 " stroke="none" fill="#400454" fill-rule="evenodd"></path><path id="path1" d="M186.240 70.716 C 185.976 70.889,185.023 71.032,184.121 71.035 C 181.501 71.043,175.181 72.264,173.294 73.127 C 172.341 73.563,171.354 73.920,171.100 73.920 C 170.662 73.920,162.897 77.686,162.560 78.062 C 162.472 78.160,162.167 78.384,161.882 78.560 C 161.234 78.961,158.214 81.360,157.034 82.411 C 156.547 82.845,156.037 83.200,155.899 83.200 C 155.288 83.200,151.863 87.345,150.876 89.280 C 150.562 89.896,150.064 90.616,149.768 90.880 C 149.209 91.379,146.337 96.843,145.899 98.240 C 145.761 98.680,145.335 99.832,144.953 100.800 C 144.571 101.768,144.141 103.064,143.999 103.680 C 143.856 104.296,143.582 105.303,143.390 105.918 C 143.197 106.533,143.040 107.496,143.040 108.059 C 143.040 108.622,142.896 109.171,142.720 109.280 C 142.538 109.392,142.400 110.984,142.400 112.960 C 142.400 114.936,142.262 116.528,142.080 116.640 C 141.876 116.766,141.760 120.957,141.760 128.160 C 141.760 135.363,141.876 139.554,142.080 139.680 C 142.262 139.792,142.400 141.384,142.400 143.360 C 142.400 145.336,142.538 146.928,142.720 147.040 C 142.896 147.149,143.040 147.788,143.040 148.460 C 143.040 149.132,143.256 150.199,143.520 150.831 C 143.784 151.462,144.000 152.387,144.000 152.886 C 144.000 153.384,144.121 153.929,144.268 154.096 C 144.531 154.394,146.306 158.851,146.703 160.211 C 146.814 160.591,147.115 161.077,147.372 161.290 C 147.630 161.504,147.840 162.021,147.840 162.439 C 147.840 162.858,147.984 163.200,148.160 163.200 C 148.336 163.200,148.481 163.452,148.481 163.760 C 148.482 164.068,148.904 164.769,149.419 165.318 C 149.934 165.868,150.853 167.092,151.462 168.038 C 152.735 170.017,159.990 176.960,160.785 176.960 C 160.897 176.960,161.342 177.313,161.774 177.745 C 162.205 178.176,163.099 178.764,163.759 179.051 C 164.420 179.339,165.248 179.731,165.600 179.924 C 165.952 180.116,166.528 180.430,166.880 180.622 C 167.232 180.814,167.880 181.207,168.320 181.495 C 169.584 182.324,178.369 184.963,179.856 184.961 C 180.305 184.960,180.809 185.094,180.976 185.257 C 182.012 186.271,217.988 186.271,219.024 185.257 C 219.191 185.094,220.029 184.960,220.885 184.960 C 221.741 184.960,222.699 184.823,223.013 184.654 C 223.327 184.486,224.670 184.058,225.997 183.702 C 227.325 183.346,229.524 182.548,230.885 181.928 C 232.246 181.307,233.594 180.799,233.880 180.799 C 234.166 180.798,234.860 180.366,235.423 179.839 C 235.985 179.311,236.705 178.880,237.023 178.880 C 237.340 178.879,237.984 178.555,238.453 178.160 C 238.923 177.764,240.064 176.864,240.988 176.160 C 243.347 174.364,245.440 172.454,245.440 172.096 C 245.440 171.691,246.272 170.880,246.687 170.880 C 247.022 170.880,249.600 167.656,249.600 167.237 C 249.600 167.113,249.965 166.622,250.412 166.146 C 251.429 165.061,253.532 160.789,254.362 158.124 C 254.707 157.014,255.192 155.866,255.440 155.573 C 255.688 155.280,256.148 153.888,256.463 152.480 C 256.778 151.072,257.162 149.589,257.318 149.185 C 257.473 148.781,257.600 147.449,257.600 146.225 C 257.600 144.928,257.736 144.000,257.926 144.000 C 258.630 144.000,257.974 108.434,257.256 107.696 C 257.093 107.529,256.960 106.864,256.960 106.218 C 256.960 105.572,256.689 104.197,256.357 103.162 C 255.793 101.399,255.446 100.580,253.082 95.434 C 252.575 94.331,252.160 93.160,252.160 92.833 C 252.160 92.505,251.620 91.678,250.960 90.994 C 249.821 89.815,248.669 88.278,248.320 87.470 C 248.025 86.789,242.728 81.404,241.758 80.800 C 241.231 80.472,240.416 79.855,239.947 79.428 C 238.666 78.262,232.625 75.143,228.480 73.507 C 226.170 72.596,221.117 71.484,216.960 70.973 C 213.307 70.523,186.872 70.303,186.240 70.716 M214.240 72.348 C 217.401 72.699,218.559 72.868,220.960 73.327 C 221.840 73.495,223.101 73.712,223.762 73.810 C 224.423 73.908,225.044 74.116,225.141 74.274 C 225.238 74.431,225.661 74.560,226.080 74.560 C 226.499 74.560,226.931 74.704,227.040 74.880 C 227.149 75.056,227.519 75.200,227.863 75.200 C 228.207 75.200,228.739 75.327,229.044 75.483 C 229.350 75.638,230.032 75.946,230.560 76.168 C 240.119 80.173,248.608 88.818,252.551 98.560 C 252.729 99.000,253.002 99.610,253.157 99.916 C 253.313 100.221,253.440 100.691,253.440 100.960 C 253.440 101.229,253.570 101.699,253.729 102.004 C 254.581 103.645,255.413 108.068,256.391 116.160 C 257.487 125.223,256.621 143.239,254.701 151.360 C 254.514 152.152,254.281 153.198,254.183 153.684 C 254.086 154.170,253.879 154.647,253.723 154.743 C 253.567 154.839,253.440 155.199,253.440 155.543 C 253.440 155.887,253.296 156.455,253.120 156.804 C 252.944 157.154,252.656 157.726,252.480 158.076 C 252.304 158.425,252.160 158.929,252.160 159.196 C 252.160 159.462,252.016 159.680,251.840 159.680 C 251.664 159.680,251.520 159.892,251.520 160.150 C 251.520 161.110,248.675 165.625,246.070 168.800 C 241.921 173.857,235.992 178.217,230.080 180.558 C 229.640 180.732,229.030 181.002,228.724 181.157 C 228.419 181.313,227.887 181.440,227.543 181.440 C 227.199 181.440,226.839 181.567,226.743 181.723 C 226.647 181.879,226.170 182.088,225.684 182.189 C 225.198 182.289,224.152 182.518,223.360 182.697 C 216.769 184.190,209.042 184.942,200.320 184.941 C 194.365 184.941,184.998 184.296,182.080 183.686 C 181.112 183.484,179.528 183.170,178.560 182.989 C 177.592 182.807,176.469 182.529,176.065 182.369 C 175.661 182.210,175.047 182.080,174.701 182.080 C 174.354 182.080,173.821 181.953,173.516 181.797 C 173.210 181.642,172.564 181.354,172.080 181.157 C 171.596 180.961,170.804 180.639,170.320 180.443 C 169.836 180.246,169.190 179.958,168.884 179.803 C 168.579 179.647,168.111 179.520,167.844 179.520 C 167.578 179.520,167.360 179.411,167.360 179.278 C 167.360 179.145,166.949 178.854,166.446 178.632 C 163.152 177.174,155.040 170.303,153.466 167.637 C 153.175 167.146,152.760 166.558,152.543 166.332 C 151.882 165.643,149.539 161.558,148.636 159.520 C 148.168 158.464,147.654 157.350,147.493 157.044 C 147.332 156.739,147.200 156.207,147.200 155.863 C 147.200 155.519,147.056 155.149,146.880 155.040 C 146.704 154.931,146.560 154.499,146.560 154.080 C 146.560 153.661,146.431 153.238,146.274 153.141 C 146.116 153.044,145.908 152.423,145.810 151.762 C 145.712 151.101,145.480 149.768,145.294 148.800 C 144.340 143.840,144.161 140.533,144.176 128.160 C 144.192 115.932,144.377 112.565,145.292 107.840 C 145.479 106.872,145.712 105.539,145.810 104.878 C 145.908 104.217,146.116 103.596,146.274 103.499 C 146.431 103.402,146.560 103.067,146.560 102.754 C 146.560 102.038,148.858 96.363,149.861 94.602 C 150.275 93.875,150.942 92.704,151.344 92.000 C 151.745 91.296,152.172 90.648,152.293 90.560 C 152.413 90.472,152.852 89.896,153.269 89.280 C 154.282 87.784,159.877 82.131,161.003 81.466 C 161.494 81.175,162.100 80.734,162.349 80.486 C 162.597 80.237,163.287 79.756,163.880 79.416 C 164.474 79.076,165.874 78.277,166.991 77.639 C 168.108 77.002,169.215 76.480,169.452 76.480 C 169.689 76.480,169.971 76.336,170.080 76.160 C 170.189 75.984,170.557 75.840,170.899 75.840 C 171.240 75.840,171.520 75.696,171.520 75.520 C 171.520 75.344,171.762 75.200,172.057 75.200 C 172.578 75.200,174.211 74.737,175.520 74.217 C 175.872 74.078,176.664 73.876,177.280 73.770 C 177.896 73.663,179.120 73.436,180.000 73.265 C 187.248 71.858,205.449 71.371,214.240 72.348 M183.233 99.146 C 181.460 102.016,179.833 113.983,180.429 119.781 C 180.631 121.749,180.866 124.152,180.951 125.120 C 181.132 127.174,181.563 129.584,182.053 131.280 C 182.244 131.940,182.530 132.948,182.688 133.520 C 183.650 136.998,185.344 139.840,186.455 139.840 C 186.930 139.840,186.829 136.934,186.279 134.813 C 185.251 130.843,185.120 129.459,185.120 122.560 C 185.120 117.781,185.264 114.661,185.550 113.280 C 187.082 105.864,187.226 105.558,188.837 106.316 C 195.216 109.320,199.415 110.201,207.440 110.222 C 211.649 110.233,214.078 110.357,214.075 110.560 C 214.045 112.539,213.182 113.764,211.645 114.012 C 206.932 114.772,197.434 113.624,192.084 111.647 C 189.071 110.534,188.600 110.519,188.348 111.524 C 188.093 112.539,188.602 113.022,190.560 113.621 C 191.264 113.836,192.488 114.220,193.280 114.474 C 196.670 115.561,202.097 116.237,208.000 116.307 L 212.640 116.362 212.736 118.171 C 212.853 120.394,212.703 120.459,207.520 120.421 C 201.194 120.375,196.811 119.692,191.586 117.938 C 187.835 116.679,187.520 116.691,187.520 118.093 C 187.520 118.853,187.685 119.064,188.400 119.221 C 188.884 119.328,189.846 119.627,190.537 119.888 C 194.246 121.283,201.029 122.244,208.000 122.362 L 212.640 122.441 212.842 123.380 C 213.325 125.623,213.201 126.030,211.920 126.413 C 210.499 126.837,202.102 126.640,199.200 126.114 C 195.355 125.417,194.620 125.244,190.800 124.130 C 188.123 123.350,187.520 123.372,187.520 124.251 C 187.520 125.165,187.743 125.285,190.938 126.081 C 192.201 126.397,193.365 126.735,193.525 126.834 C 194.993 127.741,204.918 128.784,209.578 128.520 L 213.334 128.308 213.737 129.531 C 214.749 132.597,213.951 132.939,206.400 132.679 C 199.760 132.450,193.491 131.583,190.400 130.467 C 189.008 129.964,188.160 129.923,188.160 130.358 C 188.160 131.245,189.320 132.225,190.732 132.531 C 197.023 133.894,199.864 134.184,207.520 134.244 L 214.880 134.301 215.574 135.550 C 217.322 138.696,216.662 138.943,206.995 138.765 C 199.088 138.618,195.748 138.271,190.908 137.092 C 190.109 136.898,190.006 136.945,190.188 137.419 C 190.304 137.723,190.400 138.031,190.400 138.102 C 190.400 138.439,192.853 139.200,193.940 139.200 C 194.612 139.200,195.251 139.344,195.360 139.520 C 195.469 139.696,196.765 139.840,198.240 139.840 C 199.715 139.840,201.011 139.984,201.120 140.160 C 201.368 140.561,213.120 140.597,213.120 140.196 C 213.120 139.912,214.137 139.638,216.428 139.306 C 217.513 139.148,217.629 139.048,217.423 138.444 C 217.295 138.068,217.157 136.968,217.117 136.000 C 217.077 135.032,216.661 132.512,216.193 130.400 C 215.290 126.322,214.990 117.526,215.665 114.891 C 215.825 114.269,216.138 112.896,216.361 111.840 C 216.585 110.784,217.027 109.202,217.344 108.325 C 218.124 106.165,218.109 106.128,216.582 106.372 C 205.153 108.200,193.867 105.858,185.129 99.846 C 183.601 98.795,183.478 98.750,183.233 99.146 M166.967 105.489 C 166.765 105.856,167.586 114.398,167.977 116.000 C 168.148 116.704,168.434 117.928,168.612 118.720 C 170.309 126.291,174.927 136.009,176.489 135.298 C 177.460 134.855,177.460 134.817,176.513 132.192 C 175.825 130.283,175.255 128.152,174.409 124.320 C 173.615 120.718,172.965 111.813,173.474 111.499 C 173.626 111.405,174.627 111.925,175.699 112.653 C 178.041 114.243,177.949 114.311,178.419 110.633 C 178.861 107.174,178.870 107.200,177.341 107.200 C 176.139 107.200,172.397 106.528,170.080 105.896 C 167.939 105.312,167.123 105.206,166.967 105.489 " stroke="none" fill="#ce8aaf" fill-rule="evenodd"></path><path id="path2" d="M192.640 72.015 C 187.163 72.251,183.213 72.642,180.000 73.265 C 179.120 73.436,177.896 73.663,177.280 73.770 C 176.664 73.876,175.872 74.078,175.520 74.217 C 174.211 74.737,172.578 75.200,172.057 75.200 C 171.762 75.200,171.520 75.344,171.520 75.520 C 171.520 75.696,171.240 75.840,170.899 75.840 C 170.557 75.840,170.189 75.984,170.080 76.160 C 169.971 76.336,169.689 76.480,169.452 76.480 C 169.215 76.480,168.108 77.002,166.991 77.639 C 165.874 78.277,164.474 79.076,163.880 79.416 C 163.287 79.756,162.597 80.237,162.349 80.486 C 162.100 80.734,161.494 81.175,161.003 81.466 C 159.877 82.131,154.282 87.784,153.269 89.280 C 152.852 89.896,152.413 90.472,152.293 90.560 C 152.172 90.648,151.745 91.296,151.344 92.000 C 150.942 92.704,150.275 93.875,149.861 94.602 C 148.858 96.363,146.560 102.038,146.560 102.754 C 146.560 103.067,146.431 103.402,146.274 103.499 C 146.116 103.596,145.908 104.217,145.810 104.878 C 145.712 105.539,145.479 106.872,145.292 107.840 C 144.377 112.565,144.192 115.932,144.176 128.160 C 144.161 140.533,144.340 143.840,145.294 148.800 C 145.480 149.768,145.712 151.101,145.810 151.762 C 145.908 152.423,146.116 153.044,146.274 153.141 C 146.431 153.238,146.560 153.661,146.560 154.080 C 146.560 154.499,146.704 154.931,146.880 155.040 C 147.056 155.149,147.200 155.519,147.200 155.863 C 147.200 156.207,147.332 156.739,147.493 157.044 C 147.654 157.350,148.168 158.464,148.636 159.520 C 149.539 161.558,151.882 165.643,152.543 166.332 C 152.760 166.558,153.175 167.146,153.466 167.637 C 154.811 169.915,163.594 177.669,164.144 177.065 C 164.241 176.959,164.139 176.808,163.917 176.729 C 162.597 176.257,156.866 171.207,154.872 168.759 C 153.960 167.638,151.360 163.919,151.360 163.735 C 151.360 163.635,150.928 162.912,150.400 162.130 C 149.872 161.347,149.440 160.476,149.440 160.194 C 149.440 159.911,149.296 159.680,149.120 159.680 C 148.944 159.680,148.800 159.320,148.800 158.880 C 148.800 158.440,148.656 158.080,148.480 158.080 C 148.304 158.080,148.160 157.720,148.160 157.280 C 148.160 156.840,148.016 156.480,147.840 156.480 C 147.664 156.480,147.521 156.012,147.521 155.440 L 147.522 154.400 148.161 155.448 C 148.513 156.024,148.800 156.762,148.800 157.089 C 148.800 157.415,149.024 157.868,149.298 158.095 C 149.573 158.323,149.997 158.989,150.242 159.575 C 150.487 160.161,150.839 160.640,151.024 160.640 C 151.451 160.640,152.640 159.463,152.640 159.040 C 152.640 158.864,152.784 158.720,152.960 158.720 C 153.136 158.720,153.280 158.432,153.280 158.080 C 153.280 157.728,153.424 157.440,153.600 157.440 C 153.776 157.440,153.920 157.199,153.920 156.905 C 153.920 156.611,154.159 156.106,154.452 155.783 C 155.047 155.125,155.500 154.367,156.444 152.452 C 156.798 151.733,157.311 150.959,157.584 150.733 C 157.857 150.507,158.080 150.141,158.080 149.920 C 158.080 149.699,158.299 149.337,158.566 149.115 C 158.833 148.893,159.289 148.192,159.578 147.556 C 159.867 146.920,160.449 145.931,160.870 145.358 C 161.291 144.785,161.557 144.189,161.461 144.034 C 161.365 143.879,161.516 143.562,161.797 143.329 C 162.077 143.097,162.438 142.612,162.598 142.253 C 162.758 141.894,163.165 141.168,163.501 140.640 C 163.838 140.112,164.124 139.460,164.137 139.191 C 164.149 138.921,164.448 138.494,164.800 138.240 C 165.152 137.986,165.440 137.523,165.440 137.209 C 165.440 136.896,165.584 136.640,165.760 136.640 C 165.936 136.640,166.080 136.451,166.080 136.220 C 166.080 135.642,167.321 133.121,167.607 133.118 C 167.903 133.114,168.640 131.544,168.640 130.917 C 168.640 130.655,168.946 130.115,169.320 129.717 C 170.108 128.879,169.933 127.900,169.052 128.216 C 168.737 128.329,168.584 128.307,168.711 128.166 C 168.839 128.026,168.515 127.370,167.991 126.709 C 166.773 125.171,166.703 123.840,167.840 123.840 C 168.280 123.840,168.640 123.668,168.640 123.459 C 168.640 123.249,168.851 123.357,169.110 123.699 C 169.368 124.040,169.584 124.626,169.590 125.001 C 169.595 125.375,169.816 125.861,170.080 126.080 C 170.344 126.299,170.560 126.679,170.560 126.924 C 170.560 127.168,170.691 127.619,170.852 127.924 C 171.012 128.230,171.662 129.560,172.295 130.880 C 173.665 133.734,174.472 135.161,174.800 135.307 C 174.932 135.365,175.040 135.545,175.040 135.706 C 175.040 135.973,177.175 139.147,177.606 139.520 C 177.708 139.608,178.141 140.184,178.570 140.800 C 179.940 142.771,183.988 147.200,184.418 147.200 C 184.865 147.200,184.618 146.483,183.720 145.178 C 182.481 143.377,181.133 141.086,180.909 140.400 C 180.808 140.092,180.598 139.840,180.443 139.840 C 180.287 139.840,180.160 139.560,180.160 139.219 C 180.160 138.877,180.034 138.520,179.879 138.424 C 179.725 138.329,179.279 137.420,178.888 136.405 C 177.939 133.940,177.580 133.068,177.243 132.404 C 177.087 132.099,176.960 131.567,176.960 131.223 C 176.960 130.879,176.833 130.519,176.677 130.423 C 176.521 130.327,176.317 129.850,176.223 129.364 C 176.129 128.878,175.899 127.904,175.711 127.200 C 175.062 124.771,174.363 119.898,173.815 113.983 C 173.610 111.771,173.627 111.681,174.131 112.303 C 174.423 112.664,174.830 112.960,175.034 112.960 C 175.500 112.960,176.456 113.891,176.226 114.121 C 176.132 114.214,175.679 114.044,175.218 113.742 C 174.194 113.072,173.920 113.281,174.306 114.437 C 174.689 115.588,175.589 116.175,175.988 115.535 C 176.147 115.280,176.206 114.955,176.119 114.813 C 175.865 114.403,176.927 114.134,177.365 114.498 C 178.340 115.307,178.880 114.153,178.880 111.264 C 178.880 109.753,179.024 108.429,179.200 108.320 C 179.678 108.025,179.586 107.200,179.076 107.200 C 178.831 107.200,178.647 107.380,178.667 107.600 C 178.746 108.492,178.165 113.203,177.929 113.585 C 177.740 113.892,177.180 113.658,175.712 112.662 C 174.633 111.929,173.626 111.405,173.474 111.499 C 172.965 111.813,173.615 120.718,174.409 124.320 C 175.255 128.152,175.825 130.283,176.513 132.192 C 177.460 134.817,177.460 134.855,176.489 135.298 C 174.946 136.001,170.288 126.246,168.650 118.880 C 168.493 118.176,168.153 116.660,167.894 115.511 C 167.529 113.893,166.960 108.376,166.889 105.760 C 166.878 105.359,168.400 105.420,170.080 105.889 C 174.542 107.132,178.839 107.586,177.741 106.697 C 177.158 106.225,177.198 106.206,178.400 106.374 C 179.104 106.472,179.860 106.555,180.080 106.556 C 180.584 106.561,180.636 110.116,180.140 110.612 C 179.563 111.189,180.200 128.145,180.823 128.784 C 180.986 128.951,181.120 129.555,181.120 130.125 C 181.120 130.696,181.264 131.251,181.440 131.360 C 181.616 131.469,181.760 132.045,181.760 132.640 C 181.760 133.235,181.904 133.811,182.080 133.920 C 182.256 134.029,182.400 134.399,182.400 134.743 C 182.400 135.087,182.532 135.619,182.693 135.924 C 182.854 136.230,183.300 137.272,183.686 138.240 C 184.652 140.666,185.368 142.210,185.615 142.400 C 185.729 142.488,186.178 143.280,186.613 144.160 C 187.048 145.040,187.883 146.084,188.469 146.480 C 189.663 147.287,190.352 147.433,189.795 146.762 C 189.519 146.430,189.548 146.229,189.916 145.923 C 190.524 145.418,190.521 145.173,189.887 143.728 C 189.210 142.184,188.941 141.503,188.480 140.160 C 188.268 139.544,187.977 138.752,187.832 138.400 C 187.687 138.048,187.478 137.328,187.367 136.800 C 187.256 136.272,187.022 135.192,186.846 134.400 C 185.684 129.169,185.355 124.866,185.667 118.992 C 185.964 113.383,186.231 110.948,186.588 110.576 C 186.749 110.409,186.880 109.805,186.880 109.235 C 186.880 108.664,187.024 108.109,187.200 108.000 C 187.376 107.891,187.520 107.451,187.520 107.021 C 187.520 106.027,187.363 105.989,191.116 107.880 C 191.421 108.034,191.961 108.160,192.316 108.160 C 192.670 108.160,192.960 108.304,192.960 108.480 C 192.960 108.656,193.384 108.800,193.901 108.800 C 194.419 108.800,194.921 108.928,195.018 109.085 C 195.196 109.372,196.527 109.663,198.880 109.929 C 199.584 110.009,198.648 109.664,196.800 109.162 C 193.595 108.291,191.209 107.439,188.837 106.318 C 187.226 105.557,187.082 105.862,185.550 113.280 C 185.264 114.661,185.120 117.781,185.120 122.560 C 185.120 129.459,185.251 130.843,186.279 134.813 C 186.829 136.934,186.930 139.840,186.455 139.840 C 185.344 139.840,183.650 136.998,182.688 133.520 C 182.530 132.948,182.244 131.940,182.053 131.280 C 181.563 129.584,181.132 127.174,180.951 125.120 C 180.866 124.152,180.631 121.749,180.429 119.781 C 179.886 114.503,180.824 106.383,182.631 100.715 C 183.266 98.721,183.416 98.668,185.104 99.829 C 187.663 101.590,192.801 104.087,195.680 104.970 C 196.384 105.185,197.291 105.487,197.695 105.641 C 198.099 105.794,198.747 105.907,199.135 105.891 C 199.523 105.875,198.688 105.469,197.280 104.989 C 193.616 103.739,192.734 103.394,190.560 102.361 C 189.680 101.942,188.912 101.492,188.853 101.360 C 188.795 101.228,188.471 101.120,188.133 101.120 C 187.796 101.120,187.520 100.976,187.520 100.800 C 187.520 100.624,187.304 100.480,187.041 100.480 C 186.777 100.480,185.950 99.904,185.202 99.200 C 183.729 97.812,183.864 97.547,185.528 98.561 C 186.754 99.309,187.200 99.364,187.200 98.770 C 187.200 98.533,187.488 98.079,187.840 97.760 C 188.192 97.441,188.480 97.009,188.480 96.800 C 188.480 96.591,188.779 96.148,189.145 95.818 C 189.510 95.487,190.079 94.624,190.409 93.900 C 190.739 93.177,191.231 92.399,191.504 92.173 C 191.777 91.947,192.000 91.437,192.000 91.040 C 192.000 90.643,192.218 90.138,192.484 89.917 C 192.750 89.696,193.396 88.617,193.920 87.520 C 194.444 86.423,195.087 85.347,195.349 85.129 C 195.914 84.660,196.800 82.964,196.800 82.351 C 196.800 82.114,196.944 81.920,197.120 81.920 C 197.296 81.920,197.440 81.664,197.440 81.351 C 197.440 81.037,197.728 80.574,198.080 80.320 C 198.432 80.066,198.720 79.699,198.720 79.504 C 198.720 79.060,200.097 76.317,200.688 75.585 C 200.929 75.285,201.376 74.589,201.679 74.038 L 202.232 73.035 196.076 72.711 C 190.221 72.402,190.538 72.389,202.560 72.440 C 209.512 72.470,214.552 72.402,213.760 72.290 C 211.233 71.932,198.436 71.766,192.640 72.015 M217.120 72.978 C 218.000 73.151,219.944 73.525,221.440 73.811 C 226.256 74.731,231.442 76.684,235.784 79.212 C 236.546 79.655,237.081 79.876,236.973 79.702 C 236.743 79.330,231.744 76.480,231.321 76.480 C 231.036 76.480,230.615 76.299,229.204 75.570 C 228.811 75.366,228.207 75.200,227.863 75.200 C 227.519 75.200,227.149 75.056,227.040 74.880 C 226.931 74.704,226.499 74.560,226.080 74.560 C 225.661 74.560,225.238 74.431,225.141 74.274 C 225.044 74.116,224.423 73.908,223.762 73.810 C 223.101 73.712,221.768 73.478,220.800 73.289 C 219.832 73.101,218.248 72.883,217.280 72.806 L 215.520 72.665 217.120 72.978 M185.684 73.185 C 185.291 73.261,184.571 73.263,184.084 73.190 C 183.598 73.116,183.920 73.054,184.800 73.052 C 185.680 73.049,186.078 73.109,185.684 73.185 M239.520 81.729 C 240.224 82.357,240.918 82.873,241.063 82.875 C 241.436 82.882,240.670 82.184,239.360 81.323 C 238.268 80.605,238.272 80.616,239.520 81.729 M243.634 85.520 C 244.899 86.796,246.407 88.416,246.987 89.120 C 247.939 90.278,247.969 90.293,247.304 89.280 C 246.447 87.977,241.954 83.200,241.585 83.200 C 241.447 83.200,242.369 84.244,243.634 85.520 M249.280 92.672 C 249.280 92.848,249.423 93.135,249.598 93.310 C 249.772 93.484,250.420 94.629,251.037 95.854 C 251.653 97.078,252.158 97.912,252.159 97.707 C 252.160 97.295,250.030 93.140,249.569 92.656 C 249.387 92.465,249.280 92.470,249.280 92.672 M182.400 99.680 C 182.400 100.120,182.276 100.480,182.124 100.480 C 181.973 100.480,181.918 100.120,182.002 99.680 C 182.086 99.240,182.210 98.880,182.277 98.880 C 182.345 98.880,182.400 99.240,182.400 99.680 M181.760 102.061 C 181.760 102.579,181.616 103.091,181.440 103.200 C 181.264 103.309,181.120 103.965,181.120 104.659 C 181.120 105.352,180.976 105.920,180.800 105.920 C 180.384 105.920,180.394 104.753,180.827 102.736 C 181.206 100.968,181.760 100.567,181.760 102.061 M254.090 104.000 C 254.090 104.264,254.229 104.696,254.400 104.960 C 254.676 105.387,254.710 105.387,254.710 104.960 C 254.710 104.696,254.571 104.264,254.400 104.000 C 254.124 103.573,254.090 103.573,254.090 104.000 M200.640 106.240 C 201.857 106.630,203.163 106.630,202.560 106.240 C 202.296 106.069,201.576 105.942,200.960 105.957 C 199.934 105.982,199.907 106.005,200.640 106.240 M215.200 106.261 C 214.762 106.464,215.091 106.498,216.240 106.369 C 218.136 106.156,218.131 106.146,217.344 108.325 C 217.027 109.202,216.585 110.784,216.361 111.840 C 216.138 112.896,215.825 114.269,215.665 114.891 C 214.990 117.526,215.290 126.322,216.193 130.400 C 216.661 132.512,217.077 135.032,217.117 136.000 C 217.157 136.968,217.295 138.068,217.423 138.444 C 217.629 139.048,217.513 139.148,216.428 139.306 C 214.137 139.638,213.120 139.912,213.120 140.196 C 213.120 140.597,201.368 140.561,201.120 140.160 C 201.011 139.984,199.715 139.840,198.240 139.840 C 196.765 139.840,195.469 139.696,195.360 139.520 C 195.251 139.344,194.612 139.200,193.940 139.200 C 191.903 139.200,190.080 138.188,190.080 137.057 C 190.080 136.962,190.476 136.983,190.960 137.102 C 195.654 138.260,199.114 138.619,206.995 138.765 C 216.662 138.943,217.322 138.696,215.574 135.550 L 214.880 134.301 207.520 134.244 C 199.864 134.184,197.023 133.894,190.732 132.531 C 189.320 132.225,188.160 131.245,188.160 130.358 C 188.160 129.923,189.008 129.964,190.400 130.467 C 193.491 131.583,199.760 132.450,206.400 132.679 C 213.951 132.939,214.749 132.597,213.737 129.531 L 213.334 128.308 209.578 128.520 C 204.918 128.784,194.993 127.741,193.525 126.834 C 193.365 126.735,192.201 126.397,190.938 126.081 C 187.743 125.285,187.520 125.165,187.520 124.251 C 187.520 123.377,188.147 123.350,190.720 124.112 C 196.782 125.908,199.910 126.423,205.920 126.616 C 212.976 126.843,213.531 126.584,212.842 123.380 L 212.640 122.441 208.000 122.362 C 201.029 122.244,194.246 121.283,190.537 119.888 C 189.846 119.627,188.884 119.328,188.400 119.221 C 187.685 119.064,187.520 118.853,187.520 118.093 C 187.520 116.691,187.835 116.679,191.586 117.938 C 196.811 119.692,201.194 120.375,207.520 120.421 C 212.703 120.459,212.853 120.394,212.736 118.171 L 212.640 116.362 208.000 116.307 C 202.097 116.237,196.670 115.561,193.280 114.474 C 192.488 114.220,191.264 113.836,190.560 113.621 C 188.602 113.022,188.093 112.539,188.348 111.524 C 188.604 110.501,188.973 110.526,192.591 111.807 C 195.102 112.697,195.661 112.807,195.382 112.356 C 195.286 112.200,194.684 111.974,194.044 111.854 C 193.405 111.734,192.647 111.519,192.361 111.375 C 192.074 111.232,191.408 110.937,190.880 110.720 C 190.352 110.503,189.662 110.193,189.348 110.032 C 188.494 109.595,187.840 110.442,187.840 111.985 C 187.840 113.188,187.920 113.312,188.807 113.489 C 189.338 113.596,189.851 113.808,189.946 113.961 C 190.040 114.115,190.533 114.240,191.040 114.240 C 191.547 114.240,192.051 114.384,192.160 114.560 C 192.269 114.736,192.680 114.880,193.075 114.880 C 193.469 114.880,193.929 115.009,194.096 115.167 C 194.263 115.325,194.976 115.537,195.680 115.638 C 196.384 115.739,197.896 115.979,199.040 116.172 C 200.184 116.366,203.683 116.598,206.816 116.688 L 212.513 116.852 212.416 118.346 L 212.320 119.840 209.280 119.943 C 205.262 120.079,199.176 119.503,195.998 118.686 C 194.591 118.324,193.114 117.950,192.715 117.855 C 192.317 117.761,191.912 117.557,191.816 117.402 C 191.721 117.247,191.299 117.120,190.880 117.120 C 190.461 117.120,190.029 116.976,189.920 116.800 C 189.811 116.624,189.147 116.480,188.444 116.480 L 187.165 116.480 187.262 117.939 L 187.360 119.398 189.600 120.130 C 195.335 122.004,202.243 122.997,208.401 122.830 L 212.481 122.720 212.481 124.206 C 212.480 126.090,212.501 126.082,207.094 126.070 C 202.940 126.060,200.803 125.858,196.800 125.101 C 195.832 124.917,194.499 124.688,193.838 124.590 C 193.177 124.492,192.556 124.284,192.459 124.126 C 192.362 123.969,191.939 123.840,191.520 123.840 C 191.101 123.840,190.669 123.696,190.560 123.520 C 190.451 123.344,189.896 123.200,189.325 123.200 C 188.755 123.200,188.120 123.032,187.914 122.826 C 187.402 122.314,187.127 123.090,187.259 124.684 C 187.337 125.629,187.508 125.936,188.000 126.005 C 188.707 126.106,190.493 126.589,192.524 127.230 C 196.080 128.352,199.857 128.775,206.435 128.788 L 213.030 128.800 213.405 130.203 C 213.882 131.984,214.114 131.862,209.868 132.052 C 204.929 132.272,196.886 131.563,192.960 130.561 C 192.168 130.359,191.051 130.116,190.477 130.022 C 189.903 129.927,189.355 129.721,189.258 129.565 C 188.710 128.677,187.840 129.315,187.840 130.605 C 187.840 132.103,188.448 132.774,189.821 132.790 C 190.295 132.795,190.759 132.925,190.854 133.078 C 190.948 133.230,191.713 133.456,192.553 133.578 C 193.393 133.701,194.872 133.935,195.840 134.098 C 199.534 134.719,205.774 135.048,210.117 134.852 L 214.635 134.647 215.157 136.178 C 215.794 138.048,216.260 137.800,211.448 138.151 C 205.209 138.605,195.215 137.710,190.581 136.282 C 189.328 135.895,189.070 136.382,189.691 137.962 C 190.003 138.757,190.426 139.259,190.851 139.339 C 191.219 139.408,192.312 139.613,193.280 139.794 C 199.352 140.933,205.016 141.242,211.981 140.812 L 216.761 140.517 217.498 141.312 C 218.634 142.538,218.796 143.617,217.871 143.807 C 212.797 144.849,202.521 144.703,195.219 143.484 C 193.630 143.219,192.401 143.151,192.232 143.320 C 191.768 143.784,193.330 145.911,194.139 145.916 C 194.524 145.918,195.201 146.058,195.644 146.226 C 198.326 147.246,213.723 147.256,218.363 146.241 C 219.057 146.089,219.930 146.092,220.338 146.247 C 222.040 146.894,221.801 143.830,220.069 142.779 C 219.190 142.246,218.775 141.033,219.294 140.514 C 219.507 140.301,219.175 138.870,218.304 136.240 C 215.264 127.059,214.873 119.514,216.986 110.810 C 217.361 109.264,217.797 107.863,217.954 107.696 C 219.185 106.387,217.182 105.344,215.200 106.261 M254.747 106.720 C 254.738 107.072,254.869 107.576,255.040 107.840 C 255.451 108.476,255.451 107.677,255.040 106.720 L 254.765 106.080 254.747 106.720 M206.209 106.912 C 207.601 107.058,209.977 107.059,211.489 106.912 C 213.990 106.671,213.760 106.646,208.960 106.646 C 204.336 106.645,203.994 106.678,206.209 106.912 M255.430 110.400 C 255.426 110.840,255.539 111.560,255.680 112.000 C 256.024 113.076,256.024 111.914,255.680 110.560 C 255.461 109.698,255.435 109.681,255.430 110.400 M201.335 110.447 C 202.326 110.725,211.850 110.735,212.547 110.458 C 212.848 110.338,210.281 110.239,206.842 110.239 C 203.403 110.238,200.925 110.331,201.335 110.447 M213.512 111.120 C 213.297 111.717,213.120 112.510,213.120 112.881 C 213.120 113.353,212.877 113.600,212.316 113.698 C 211.535 113.834,211.537 113.837,212.365 113.799 C 213.098 113.765,213.280 113.543,213.666 112.213 C 214.196 110.386,214.079 109.553,213.512 111.120 M166.995 113.360 C 166.950 115.024,166.947 115.028,166.742 113.760 C 166.628 113.056,166.592 112.300,166.662 112.080 C 166.919 111.266,167.039 111.725,166.995 113.360 M195.840 112.733 C 195.840 113.221,201.100 113.920,205.760 114.050 C 210.766 114.190,210.849 114.183,207.360 113.913 C 203.814 113.638,199.546 113.162,197.040 112.762 C 196.380 112.656,195.840 112.643,195.840 112.733 M256.231 118.240 C 256.326 120.176,256.456 121.820,256.522 121.893 C 256.738 122.138,256.588 117.944,256.321 116.320 C 256.145 115.244,256.115 115.874,256.231 118.240 M167.680 117.581 C 167.680 118.363,167.824 119.091,168.000 119.200 C 168.176 119.309,168.320 119.983,168.320 120.698 C 168.320 121.814,168.252 121.942,167.843 121.603 C 167.578 121.383,167.390 120.761,167.420 120.203 C 167.450 119.652,167.360 118.516,167.221 117.680 C 167.045 116.625,167.076 116.160,167.324 116.160 C 167.532 116.160,167.680 116.750,167.680 117.581 M256.773 128.160 C 256.774 131.504,256.821 132.829,256.879 131.103 C 256.936 129.378,256.936 126.642,256.878 125.023 C 256.820 123.405,256.773 124.816,256.773 128.160 M256.222 138.205 C 256.091 140.210,256.045 141.911,256.120 141.987 C 256.318 142.184,256.728 136.304,256.583 135.357 C 256.516 134.919,256.353 136.200,256.222 138.205 M145.287 145.401 C 145.064 145.624,144.970 145.222,144.992 144.144 L 145.024 142.560 145.319 143.817 C 145.512 144.639,145.501 145.187,145.287 145.401 M255.575 144.925 C 255.457 145.516,255.376 146.306,255.395 146.680 C 255.414 147.054,255.558 146.712,255.713 145.920 C 255.869 145.128,255.950 144.338,255.893 144.165 C 255.837 143.992,255.693 144.334,255.575 144.925 M145.821 148.720 C 145.740 149.028,145.674 148.776,145.674 148.160 C 145.674 147.544,145.740 147.292,145.821 147.600 C 145.901 147.908,145.901 148.412,145.821 148.720 M254.903 149.303 C 254.785 149.772,254.751 150.217,254.826 150.293 C 254.901 150.368,255.059 150.046,255.177 149.577 C 255.295 149.108,255.329 148.663,255.254 148.587 C 255.179 148.512,255.021 148.834,254.903 149.303 M147.147 152.480 C 147.355 153.477,147.367 154.195,147.180 154.384 C 146.993 154.574,146.880 154.244,146.880 153.504 C 146.880 152.853,146.736 152.320,146.560 152.320 C 146.384 152.320,146.240 151.859,146.240 151.296 C 146.240 149.872,146.738 150.523,147.147 152.480 M254.240 152.000 C 254.120 152.379,254.094 152.760,254.182 152.848 C 254.270 152.936,254.440 152.699,254.560 152.320 C 254.680 151.941,254.706 151.560,254.618 151.472 C 254.530 151.384,254.360 151.621,254.240 152.000 M249.996 162.738 C 249.602 163.339,249.280 163.938,249.280 164.070 C 249.280 164.201,249.653 163.760,250.108 163.089 C 250.564 162.419,250.886 161.820,250.825 161.758 C 250.763 161.696,250.390 162.137,249.996 162.738 M243.668 171.280 L 242.080 172.960 243.760 171.372 C 245.321 169.896,245.587 169.600,245.348 169.600 C 245.297 169.600,244.541 170.356,243.668 171.280 M164.603 177.540 C 164.691 177.682,165.346 178.078,166.058 178.420 C 166.770 178.761,167.354 179.148,167.356 179.280 C 167.358 179.412,167.578 179.520,167.844 179.520 C 168.111 179.520,168.579 179.647,168.884 179.803 C 169.457 180.094,170.757 180.648,172.160 181.200 C 172.600 181.373,173.210 181.642,173.516 181.797 C 173.821 181.953,174.246 182.080,174.460 182.080 C 175.151 182.080,174.300 181.567,172.640 180.983 C 169.855 180.003,166.868 178.658,165.711 177.863 C 164.813 177.247,164.335 177.107,164.603 177.540 M233.846 178.478 C 233.014 178.941,232.385 179.372,232.449 179.435 C 232.578 179.565,234.870 178.342,235.344 177.890 C 235.820 177.436,235.479 177.570,233.846 178.478 M176.000 182.400 C 176.264 182.571,176.696 182.710,176.960 182.710 C 177.387 182.710,177.387 182.676,176.960 182.400 C 176.696 182.229,176.264 182.090,176.000 182.090 C 175.573 182.090,175.573 182.124,176.000 182.400 M178.720 183.040 C 179.677 183.451,180.476 183.451,179.840 183.040 C 179.576 182.869,179.072 182.738,178.720 182.747 L 178.080 182.765 178.720 183.040 M220.800 183.040 C 220.373 183.316,220.373 183.350,220.800 183.350 C 221.064 183.350,221.496 183.211,221.760 183.040 C 222.187 182.764,222.187 182.730,221.760 182.730 C 221.496 182.730,221.064 182.869,220.800 183.040 M182.400 183.680 C 183.624 184.072,184.606 184.072,184.000 183.680 C 183.736 183.509,183.088 183.382,182.560 183.397 C 181.619 183.423,181.616 183.429,182.400 183.680 M216.800 183.691 C 216.382 183.878,216.771 183.911,217.920 183.785 C 218.888 183.680,219.740 183.541,219.813 183.477 C 220.097 183.229,217.406 183.420,216.800 183.691 M189.280 184.466 C 195.415 185.020,205.213 185.021,211.360 184.468 L 216.160 184.036 211.680 184.258 C 206.029 184.538,194.808 184.534,188.960 184.250 L 184.480 184.033 189.280 184.466 " stroke="none" fill="#851979" fill-rule="evenodd"></path></g></svg>